# xmcd
#
# Track frame offsets:
#	150
#	3288
#	27888
#	47821
#	70589
#	87680
#	113235
#	139640
#	161914
#	197381
#	217189
#	228610
#	245248
#	259741
#	276059
#	291785
#	305790
#	325918
#
# Disc length: 4490 seconds
#
# Revision: 0
# Processed by: cddbd v1.5.2PL0 Copyright (c) Steve Scherf et al.
# Submitted via: SynApp - FreeCDDB Version: 2.3
#
DISCID=11118812
DTITLE=Udo Jürgens - Jetzt oder nie - 2
DYEAR=2006
DGENRE=Pop
TTITLE0=Udo Jürgens - Orchester-Opening - Gestern, Heute, Morgen
TTITLE1=Udo Jürgens - In allen Dingen lebt ein Lied [live]/live
TTITLE2=Udo Jürgens - Jetzt oder nie [live]/live
TTITLE3=Udo Jürgens - Auch kleine Steine ziehen große Kreise
TTITLE4=Udo Jürgens - Frauen [live]/live
TTITLE5=Udo Jürgens - Der gekaufte Drachen [live]/live
TTITLE6=Udo Jürgens - Der Mann mit dem Fagott [live]/live
TTITLE7=Udo Jürgens - Vielen Dank für die Blumen [live]/live
TTITLE8=Udo Jürgens - Ich war noch niemals in New York [live]/live
TTITLE9=Udo Jürgens - Ich weiß, was ich will
TTITLE10=Udo Jürgens - Siebzehn Jahr, blondes Haar
TTITLE11=Udo Jürgens - Liebe ohne Leiden
TTITLE12=Udo Jürgens - Griechischer Wein
TTITLE13=Udo Jürgens - Aber bitte mit Sahne
TTITLE14=Udo Jürgens - Mein Weg zu mir [live]/live
TTITLE15=Udo Jürgens - Das wünsch ich dir [live]/live
TTITLE16=Udo Jürgens - Merci Chérie - Danke [live]/live
TTITLE17=Udo Jürgens - Mit 66 Jahren [live]/live
EXTD=
EXTT0=
EXTT1=
EXTT2=
EXTT3=
EXTT4=
EXTT5=
EXTT6=
EXTT7=
EXTT8=
EXTT9=
EXTT10=
EXTT11=
EXTT12=
EXTT13=
EXTT14=
EXTT15=
EXTT16=
EXTT17=
PLAYORDER=
